<?xml version="1.0" standalone="no"?><!DOCTYPE svg PUBLIC "-//W3C//DTD SVG 1.1//EN" "http://www.w3.org/Graphics/SVG/1.1/DTD/svg11.dtd"><svg class="icon" width="64px" height="64.00px" viewBox="0 0 1024 1024" version="1.1" xmlns="http://www.w3.org/2000/svg"><path d="M663.5008 838.8096H197.4784c-53.0432 0-96.1024-43.008-96.1024-96.1024V159.3856c0-53.0432 43.008-96.1024 96.1024-96.1024h466.0224c53.0432 0 96.1024 43.008 96.1024 96.1024v583.3728c-0.0512 53.0432-43.0592 96.0512-96.1024 96.0512z" fill="#FFD05C" /><path d="M830.5664 970.0864H364.544c-53.0432 0-96.1024-43.008-96.1024-96.1024V290.6112C268.4416 237.568 311.4496 194.56 364.544 194.56h466.0224c53.0432 0 96.1024 43.008 96.1024 96.1024V873.984c0 53.0432-43.0592 96.1024-96.1024 96.1024z" fill="#FFD05C" /><path d="M365.8752 194.56c-53.8112 0-97.4336 43.6224-97.4336 97.4336v546.816h393.6768c53.8112 0 97.4336-43.6224 97.4336-97.4336V194.56H365.8752z" fill="#FCA235" /><path d="M692.9408 485.0688H430.4896c-22.6304 0-40.96-18.3296-40.96-40.96s18.3296-40.96 40.96-40.96h262.5024c22.6304 0 40.96 18.3296 40.96 40.96s-18.3808 40.96-41.0112 40.96zM578.6112 661.0432H430.4896c-22.6304 0-40.96-18.3296-40.96-40.96s18.3296-40.96 40.96-40.96h148.1216c22.6304 0 40.96 18.3296 40.96 40.96s-18.3296 40.96-40.96 40.96z" fill="#FFFFFF" /></svg>