<?xml version="1.0" standalone="no"?><!DOCTYPE svg PUBLIC "-//W3C//DTD SVG 1.1//EN" "http://www.w3.org/Graphics/SVG/1.1/DTD/svg11.dtd"><svg class="icon" width="64px" height="64.00px" viewBox="0 0 1024 1024" version="1.1" xmlns="http://www.w3.org/2000/svg"><path d="M359.5264 793.856h222.8736c3.8912 0 7.68 1.1264 10.9056 3.2768l127.8464 84.6848c29.6448 19.6608 69.2736-1.6384 69.2224-37.2224l-0.0512-30.9248c0-10.9056 8.8064-19.7632 19.7632-19.7632h31.1296c63.488 0 114.9952-51.5072 114.9952-114.9952V361.0624c0-63.488-51.5072-114.9952-114.9952-114.9952H359.5264c-63.488 0-114.9952 51.5072-114.9952 114.9952v317.7984c-0.0512 63.5392 51.456 114.9952 114.9952 114.9952z" fill="#5EEFB7" /><path d="M734.208 757.8624H485.2736c-4.352 0-8.5504 1.28-12.1856 3.6864l-167.6288 111.0528c-22.4768 14.8992-52.48-1.28-52.48-28.2112l0.1024-64.4096c0-12.1856-9.8304-22.0672-22.0672-22.0672h-34.7648c-70.912 0-128.4608-57.4976-128.4608-128.4608V274.5344c0-70.912 57.4976-128.4608 128.4608-128.4608H734.208c70.912 0 128.4608 57.4976 128.4608 128.4608v354.9184c-0.0512 70.912-57.5488 128.4096-128.4608 128.4096z" fill="#4BE2AC" /><path d="M359.5264 246.0672c-63.488 0-114.9952 51.5072-114.9952 114.9952v317.7984c0 63.488 51.5072 114.9952 114.9952 114.9952h64.768l48.8448-32.3584c3.584-2.4064 7.8336-3.6864 12.1856-3.6864h248.9344c70.912 0 128.4608-57.4976 128.4608-128.4608v-354.816c0-9.216-0.9728-18.2272-2.8672-26.9312-6.0928-0.9728-12.288-1.536-18.6368-1.536H359.5264z" fill="#06CC76" /><path d="M670.0544 361.6256H279.6032c-22.6304 0-40.96-18.3296-40.96-40.96s18.3296-40.96 40.96-40.96h390.4c22.6304 0 40.96 18.3296 40.96 40.96s-18.2784 40.96-40.9088 40.96zM670.0544 500.992H279.6032c-22.6304 0-40.96-18.3296-40.96-40.96s18.3296-40.96 40.96-40.96h390.4c22.6304 0 40.96 18.3296 40.96 40.96s-18.2784 40.96-40.9088 40.96zM466.5856 640.3584H279.6032c-22.6304 0-40.96-18.3296-40.96-40.96s18.3296-40.96 40.96-40.96h186.9824c22.6304 0 40.96 18.3296 40.96 40.96s-18.3296 40.96-40.96 40.96z" fill="#FFFFFF" /></svg>