<?xml version="1.0" standalone="no"?><!DOCTYPE svg PUBLIC "-//W3C//DTD SVG 1.1//EN" "http://www.w3.org/Graphics/SVG/1.1/DTD/svg11.dtd"><svg class="icon" width="64px" height="64.00px" viewBox="0 0 1024 1024" version="1.1" xmlns="http://www.w3.org/2000/svg"><path d="M486.0928 947.3024l-380.3648-197.8368c-39.3728-20.48-39.3728-76.8 0-97.2288l380.3648-197.8368c15.7696-8.192 34.56-8.2432 50.3296-0.1024l384.9216 197.8368c39.68 20.3776 39.68 77.1072 0 97.4848l-384.9216 197.8368a54.912 54.912 0 0 1-50.3296-0.1536z" fill="#A5ADF6" /><path d="M486.0928 571.136L105.728 373.248c-39.3728-20.48-39.3728-76.8 0-97.2288l380.3648-197.8368c15.7696-8.192 34.56-8.2432 50.3296-0.1024l384.9216 197.8368c39.68 20.3776 39.68 77.1072 0 97.4848l-384.9216 197.8368a54.7584 54.7584 0 0 1-50.3296-0.1024z" fill="#A5ADF6" /><path d="M486.0928 763.3408l-380.3648-197.8368c-39.3728-20.48-39.3728-76.8 0-97.2288l380.3648-197.8368c15.7696-8.192 34.56-8.2432 50.3296-0.1024l384.9216 197.8368c39.68 20.3776 39.68 77.1072 0 97.4848l-384.9216 197.8368a54.7584 54.7584 0 0 1-50.3296-0.1536z" fill="#A5ADF6" /><path d="M486.0928 454.3488l-297.0112 154.5216 297.0112 154.5216c15.7696 8.192 34.56 8.2432 50.3296 0.1024l300.8512-154.624-300.8512-154.624a54.60992 54.60992 0 0 0-50.3296 0.1024z" fill="#8695EA" /><path d="M486.0928 270.3872L197.0176 420.7616l289.0752 150.3744c15.7696 8.192 34.56 8.2432 50.3296 0.1024l292.7616-150.4768-292.7616-150.4768a54.7584 54.7584 0 0 0-50.3296 0.1024z" fill="#8695EA" /><path d="M486.0928 454.3488l-112.2816 58.4192 112.2816 58.4192c15.7696 8.192 34.56 8.2432 50.3296 0.1024l113.8688-58.5216-113.8688-58.5216a54.60992 54.60992 0 0 0-50.3296 0.1024z" fill="#635DF7" /></svg>