<?xml version="1.0" standalone="no"?><!DOCTYPE svg PUBLIC "-//W3C//DTD SVG 1.1//EN" "http://www.w3.org/Graphics/SVG/1.1/DTD/svg11.dtd"><svg class="icon" width="64px" height="64.00px" viewBox="0 0 1024 1024" version="1.1" xmlns="http://www.w3.org/2000/svg"><path d="M303.6672 559.9232m-242.5856 0a242.5856 242.5856 0 1 0 485.1712 0 242.5856 242.5856 0 1 0-485.1712 0Z" fill="#F85F69" /><path d="M201.3184 703.232c-10.496 0-20.9408-3.9936-28.9792-11.9808-35.072-35.072-54.3744-81.7152-54.3744-131.328s19.3024-96.256 54.3744-131.328c15.9744-15.9744 41.9328-15.9744 57.9072 0s15.9744 41.9328 0 57.9072c-19.6096 19.6096-30.4128 45.6704-30.4128 73.3696s10.8032 53.76 30.4128 73.3696a40.8832 40.8832 0 0 1 0 57.9072 40.63232 40.63232 0 0 1-28.928 12.0832z" fill="#FFFFFF" /><path d="M789.1456 239.6672m-162.7136 0a162.7136 162.7136 0 1 0 325.4272 0 162.7136 162.7136 0 1 0-325.4272 0Z" fill="#F85F69" /><path d="M799.6928 793.4464m-157.5424 0a157.5424 157.5424 0 1 0 315.0848 0 157.5424 157.5424 0 1 0-315.0848 0Z" fill="#F85F69" /><path d="M749.7728 820.224c-5.888 0-11.8784-1.28-17.5616-3.9936l-385.536-183.3984c-27.136-12.9024-44.6464-38.5536-46.7968-68.5568-2.1504-30.0032 11.4688-57.856 36.5056-74.5472l405.0432-270.0288a40.91904 40.91904 0 0 1 56.7808 11.3664 40.91904 40.91904 0 0 1-11.3664 56.7808l-405.0432 270.0288c-0.256 0.3072-0.256 0.7168-0.1536 0.8704l385.7408 183.5008c20.4288 9.728 29.0816 34.1504 19.4048 54.5792a40.9088 40.9088 0 0 1-37.0176 23.3984z" fill="#F85F69" /><path d="M741.376 219.7504l-106.7008 71.1168c8.8064 26.624 24.32 50.2272 44.544 68.7616l107.5712-71.7312a40.92928 40.92928 0 0 0 11.3664-56.7808c-12.4928-18.8416-37.9392-23.9104-56.7808-11.3664zM767.3856 742.2976l-93.0304-44.2368c-16.4864 21.6064-27.4944 47.616-30.976 75.9808l88.7808 42.24c5.6832 2.7136 11.6736 3.9936 17.5616 3.9936 15.3088 0 30.0032-8.6016 37.0176-23.3472 9.728-20.48 1.0752-44.9024-19.3536-54.6304zM535.3984 631.9104l-153.7024-73.1136c-0.1024-0.1536-0.1024-0.5632 0.1536-0.8704l143.8208-95.8976a242.11456 242.11456 0 0 0-45.2608-68.2496L336.384 489.7792c-25.0368 16.6912-38.656 44.544-36.5056 74.5472 2.1504 30.0032 19.6608 55.6032 46.7968 68.5568l151.4496 72.0896a244.0192 244.0192 0 0 0 37.2736-73.0624z" fill="#F33B3D" /></svg>