<?xml version="1.0" standalone="no"?><!DOCTYPE svg PUBLIC "-//W3C//DTD SVG 1.1//EN" "http://www.w3.org/Graphics/SVG/1.1/DTD/svg11.dtd"><svg class="icon" width="64px" height="64.00px" viewBox="0 0 1024 1024" version="1.1" xmlns="http://www.w3.org/2000/svg"><path d="M885.1456 263.168L508.6208 488.2432 136.0896 269.4656c-7.8848-4.6592-17.664 1.792-16.5376 10.9056l55.4496 445.8496 0.1536 0.0512c1.28 31.0784 26.368 59.0848 61.3888 59.0848h540.16c35.7888 0 61.3376-29.2864 61.4912-61.2864l0.6144-0.0512 62.976-449.8432c1.2288-9.1648-8.6528-15.7696-16.64-11.008z" fill="#A5ADF6" /><path d="M505.344 166.8096L184.2176 691.9168c-25.0368 40.9088 4.4032 93.44 52.3776 93.44H776.704c47.3088 0 76.8512-51.3024 53.0944-92.2112L524.288 167.0144c-4.1984-7.2192-14.592-7.3216-18.944-0.2048z" fill="#A5ADF6" /><path d="M782.592 784.9984l1.3824-0.1536c1.8944-0.2048 3.7888-0.512 5.5808-0.8704 0.0512 0 0.1024-0.0512 0.2048-0.0512 1.792-0.3584 3.5328-0.8704 5.2224-1.3824 0.4096-0.1536 0.8192-0.256 1.28-0.4096 1.7408-0.5632 3.4304-1.1776 5.0688-1.9456 0.1024-0.0512 0.1536-0.1024 0.256-0.1024 1.5872-0.7168 3.1232-1.4848 4.6592-2.304 0.3584-0.2048 0.7168-0.3584 1.024-0.5632 1.536-0.9216 3.072-1.8432 4.5568-2.8672a62.33088 62.33088 0 0 0 4.3008-3.328c0.256-0.2048 0.512-0.4608 0.768-0.6656 1.3824-1.1776 2.6624-2.4064 3.9424-3.7376l0.1024-0.1024c1.2288-1.28 2.4064-2.6112 3.4816-3.9936 0.1536-0.2048 0.3584-0.4096 0.512-0.6656 2.2528-2.8672 4.3008-5.9904 5.9904-9.216 0.1024-0.2048 0.2048-0.3584 0.3072-0.5632 1.7408-3.328 3.1232-6.7584 4.2496-10.3424l0.1536-0.4608c1.0752-3.6352 1.8432-7.3728 2.2528-11.1616 0-0.1024 0.0512-0.256 0.0512-0.3584 0.2048-1.9456 0.3072-3.84 0.3072-5.7856 0.0512-10.3424-2.56-20.9408-8.3968-30.976l-171.0592-294.6048-150.1696 89.856-147.0464-86.3744-177.3568 289.9968a60.50816 60.50816 0 0 0-9.0112 34.3552c0.1536 3.8912 0.6656 7.68 1.536 11.4176v0.0512c0.8704 3.6864 2.0992 7.3216 3.584 10.752 0.0512 0.0512 0.0512 0.1536 0.1024 0.2048 1.4848 3.3792 3.328 6.656 5.376 9.728 0.1024 0.1024 0.1536 0.256 0.256 0.3584 2.048 3.0208 4.4032 5.8368 6.9632 8.448l0.4608 0.4608c1.1776 1.1776 2.3552 2.2528 3.6352 3.328 0.1536 0.1536 0.3072 0.256 0.4608 0.4096 1.3824 1.1264 2.816 2.2016 4.2496 3.2256 0.2048 0.1536 0.4608 0.3072 0.6656 0.4608 1.28 0.8704 2.6112 1.6384 3.9424 2.4064 0.3072 0.1536 0.6144 0.3584 0.9216 0.512 1.536 0.8192 3.1232 1.6384 4.7616 2.304l0.768 0.3072c1.4336 0.5632 2.8672 1.1264 4.352 1.5872 0.4096 0.1536 0.8192 0.256 1.28 0.4096 1.7408 0.512 3.4816 0.9728 5.2736 1.3312 0.2048 0.0512 0.4096 0.0512 0.6144 0.1024a77.2352 77.2352 0 0 0 6.4512 0.9216c1.8944 0.1536 3.7888 0.3072 5.7344 0.3072H776.704c1.9968 0.0512 3.9424-0.0512 5.888-0.256z" fill="#635DF7" /><path d="M514.816 167.4752m-73.6768 0a73.6768 73.6768 0 1 0 147.3536 0 73.6768 73.6768 0 1 0-147.3536 0Z" fill="#A5ADF6" /><path d="M514.816 241.152c16.5376 0 31.744-5.5296 44.032-14.6944l-34.5088-59.4432c-4.1984-7.2192-14.592-7.3728-18.9952-0.2048l-35.8912 58.6752c12.544 9.7792 28.2624 15.6672 45.3632 15.6672z" fill="#635DF7" /><path d="M906.0864 252.2624m-63.8976 0a63.8976 63.8976 0 1 0 127.7952 0 63.8976 63.8976 0 1 0-127.7952 0Z" fill="#A5ADF6" /><path d="M885.1456 263.168l-34.56 20.6848c9.4208 16.4864 25.9584 28.3648 45.4144 31.4368l5.7344-41.1136c1.28-9.1648-8.6016-15.7696-16.5888-11.008z" fill="#635DF7" /><path d="M117.7088 256.8192m-63.8976 0a63.8976 63.8976 0 1 0 127.7952 0 63.8976 63.8976 0 1 0-127.7952 0Z" fill="#A5ADF6" /><path d="M136.0896 269.4656c-7.8848-4.6592-17.664 1.792-16.5376 10.9056l4.9664 39.9872c20.0192-2.0992 37.2736-13.5168 47.4112-29.7984l-35.84-21.0944z" fill="#635DF7" /><path d="M786.0224 920.576H234.1888c-23.7568 0-42.9568-19.2512-42.9568-42.9568 0-23.7568 19.2512-42.9568 42.9568-42.9568h551.8336c23.7568 0 42.9568 19.2512 42.9568 42.9568 0 23.7056-19.2 42.9568-42.9568 42.9568z" fill="#A5ADF6" /><path d="M634.7264 717.9776H384.8192c-22.6304 0-40.96-18.3296-40.96-40.96s18.3296-40.96 40.96-40.96h249.9072c22.6304 0 40.96 18.3296 40.96 40.96s-18.3296 40.96-40.96 40.96z" fill="#FFFFFF" /></svg>