<?xml version="1.0" standalone="no"?><!DOCTYPE svg PUBLIC "-//W3C//DTD SVG 1.1//EN" "http://www.w3.org/Graphics/SVG/1.1/DTD/svg11.dtd"><svg class="icon" width="100px" height="100.00px" viewBox="0 0 1024 1024" version="1.1" xmlns="http://www.w3.org/2000/svg"><path d="M957.9 391.5c-1.1-7.5-5.5-14.2-12-18.5L527.4 98.9c-4.6-3.1-10.1-4.7-15.7-4.7-5.7 0-11.1 1.6-15.7 4.7L77.4 373.1c-6.2 4.1-10.4 10.3-11.6 17.4-1.2 7 0.5 14 4.8 19.7 5.2 6.9 13.7 11.1 22.6 11.1 5.6 0 11.1-1.6 15.7-4.7l40.2-26.3v435.4c0 57.8 45.8 104.7 102.2 104.7h520.8c56.3 0 102.2-47 102.2-104.7V390.2l40.4 26.5c5.7 3.5 11.1 5.2 16.4 5.2 7.9 0 15.2-3.8 21.5-11.4 4.4-5.4 6.3-12.1 5.3-19zM616.3 884.4H407V631.7c0-54 46.9-97.9 104.6-97.9 57.7 0 104.6 43.9 104.6 97.9v252.7z m202.4-58.8c0 28.6-20.9 51.9-46.6 51.9H665V631.7c0-79.4-68.8-143.9-153.3-143.9-84.5 0-153.3 64.6-153.3 143.9v245.9H251.3c-25.7 0-46.7-23.3-46.7-51.9V353.9l307.1-201.2 307.1 201.2v471.7z" fill="#6B400D" /><path d="M511.7 533.8c-57.7 0-104.6 43.9-104.6 97.9v252.7h209.3V631.7c-0.1-54-47-97.9-104.7-97.9z" fill="#FFD524" /><path d="M270.3 504.3c-17.5 0-31.7 14.7-31.7 32.8 0 18.1 14.2 32.8 31.7 32.8s31.7-14.7 31.7-32.8c-0.1-18.1-14.3-32.8-31.7-32.8zM270.3 592.9h-1.4c-13.1 0-23.8 10.7-23.8 23.8v212.5c0 13.1 10.7 23.8 23.8 23.8h1.4c13.1 0 23.8-10.7 23.8-23.8V616.7c0-13.1-10.7-23.8-23.8-23.8z" fill="#6B400D" /></svg>