<?xml version="1.0" standalone="no"?><!DOCTYPE svg PUBLIC "-//W3C//DTD SVG 1.1//EN" "http://www.w3.org/Graphics/SVG/1.1/DTD/svg11.dtd"><svg class="icon" width="100px" height="100.00px" viewBox="0 0 1024 1024" version="1.1" xmlns="http://www.w3.org/2000/svg"><path d="M429.3 544.1c-41.3-24.1-65.7-55.1-84.2-107l-1.4-3.5c-3.5-6.9-10.5-11.1-18.5-11.1-2.2 0.1-4.2 0.5-6.1 1.1-9.1 3.2-14.6 12.6-13 22.7l1.3 4.4c21.2 59.7 51.1 97.5 99.9 126.4 0.1 0 7.2 4.8 11 4.8l2.8 0.1c1.9-0.1 3.9-0.4 5.8-1.1 10.4-3.7 15.8-15.2 12.1-25.7-1.6-5.1-5.3-9.2-9.7-11.1zM317.9 412.9c5.4-1.8 9.8-5.5 12.5-10.7 2.6-5.1 3-10.9 1.3-16.4-2.9-8.9-11.1-14.8-20.4-14.8-2.2 0-4.4 0.4-6.7 1.1-11.2 3.7-17.4 15.8-13.7 27 2.9 8.9 11.1 14.8 20.4 14.8 2.2 0.1 4.4-0.3 6.6-1z" fill="#6B400D" /><path d="M682.8 669.3c93.9-57.7 156.8-160.7 156.8-278.3 0-180.4-147.6-327.2-328.9-327.2S181.8 210.6 181.8 391c0 117.6 62.9 220.6 156.8 278.3l-134 170.1c-9.2 16.5-10.6 35-10.6 44.6 0 50.8 26 75.7 66.2 75.7h501.1c40.2 0 66.2-24.9 66.2-75.7 0-17.8-3.2-31.4-10.4-44.3L682.8 669.3zM242.7 391c0-146.8 120.2-266.3 268-266.3s268 119.4 268 266.3-120.2 266.3-268 266.3-268-119.5-268-266.3z m494.1 506.1H284.7c-13.5 0-22.5-12.1-22.5-24.2 0-4.8 0-7.3 2.3-12.1l127.4-165.1c36.9 14.3 76.9 22.5 118.9 22.5s81.9-8.1 118.9-22.5L757 860.8c2.2 2.4 2.2 7.3 2.2 12.1 0.1 12.1-8.9 24.2-22.4 24.2z" fill="#6B400D" /><path d="M629.6 695.7c-36.9 14.3-76.9 22.5-118.9 22.5-41.9 0-81.9-8.1-118.9-22.5L264.4 860.8c-2.3 4.8-2.3 7.3-2.3 12.1 0 12.1 9 24.2 22.5 24.2h452.1c13.5 0 22.5-12.1 22.5-24.2 0-4.8 0-9.7-2.2-12.1L629.6 695.7z" fill="#FFD524" /></svg>