<?xml version="1.0" standalone="no"?><!DOCTYPE svg PUBLIC "-//W3C//DTD SVG 1.1//EN" "http://www.w3.org/Graphics/SVG/1.1/DTD/svg11.dtd"><svg t="1623122137093" class="icon" viewBox="0 0 1024 1024" version="1.1" xmlns="http://www.w3.org/2000/svg" p-id="2259" xmlns:xlink="http://www.w3.org/1999/xlink" width="200" height="200"><defs><style type="text/css"></style></defs><path d="M211.0976 273.5616l86.5792-47.0016s5.888 56.9344 34.8672 97.3824c67.0208-8.0384 83.2512-44.544 236.5952-34.2016 5.0688 36.2496-10.0352 49.6128-10.0352 49.6128s-85.5552-28.16-194.56 34.5088c18.1248 18.9952 48.4864 60.928 48.4864 60.928l-28.672 34.7648s-55.2448-34.8672-92.16-85.76c-18.432 55.3984-29.1328 151.1936-9.216 199.6288-28.7744 25.3952-46.1312 28.672-46.1312 28.672s-45.568-153.8048 4.9664-283.3408c-10.3424-19.3024-30.72-55.1936-30.72-55.1936z" fill="#A2DD9E" p-id="2260"></path><path d="M236.7488 627.4048c-6.7072 0-12.7488-4.352-14.6944-11.008-1.8944-6.4-45.0048-155.2384 2.8672-286.6176-10.5984-19.5072-26.9824-48.3328-27.136-48.6912-2.048-3.584-2.56-7.8336-1.4336-11.8272 1.1264-3.9424 3.84-7.3216 7.424-9.2672l86.5792-47.0016a15.29856 15.29856 0 0 1 22.5792 11.9296c0.0512 0.4608 5.12 46.5408 26.9824 82.3296 15.9232-2.7648 29.0304-7.2704 43.8272-12.3904 37.632-13.0048 80.3328-27.6992 186.368-20.5824 7.2704 0.512 13.1584 5.9904 14.1824 13.2096 6.0416 43.1616-12.9024 61.3376-15.104 63.232-4.096 3.6352-9.7792 4.7616-14.9504 3.072-0.7168-0.2048-72.2944-22.272-165.4784 24.32 16.9984 20.4288 35.6352 46.1824 36.608 47.5648 4.096 5.6832 3.84 13.3632-0.6144 18.7904l-28.672 34.7648a15.39584 15.39584 0 0 1-20.0704 3.2256c-1.9968-1.2288-41.8304-26.624-77.2096-66.048-12.5952 54.6304-16.384 125.3888-1.6896 161.1264 2.5088 6.0416 0.8704 13.0048-4.0448 17.3568-31.0272 27.4432-51.3024 31.8464-53.504 32.256-0.9728 0.1536-1.8944 0.256-2.816 0.256z m-4.608-347.8016c6.8608 12.2368 16.7936 30.0032 23.1424 41.8816 2.0992 3.9424 2.4064 8.6528 0.768 12.8-38.5536 98.7648-18.5344 213.9136-8.8064 256.512 4.7616-2.7648 10.7008-6.7072 17.664-12.288-17.4592-57.6512-3.4816-151.0912 12.6464-199.5776a15.39072 15.39072 0 0 1 27.0336-4.1984c25.088 34.56 59.4432 61.6448 76.8512 74.1888l12.0832-14.6944c-9.8816-13.312-28.0576-37.1712-40.0896-49.7664a15.35488 15.35488 0 0 1 3.4304-23.9104c91.136-52.3776 166.8096-44.544 195.1744-38.7584 1.4336-3.84 2.7648-9.5232 2.816-17.5104-90.2144-4.7104-127.744 8.2432-161.024 19.7632-18.3808 6.3488-35.7888 12.3392-59.4432 15.1552-5.5296 0.6656-11.0592-1.7408-14.2848-6.2976-19.5584-27.2896-29.3376-60.8768-33.9456-82.5344l-54.016 29.2352z" fill="#000F04" p-id="2261"></path><path d="M742.656 820.9408m-114.9952 0a114.9952 114.9952 0 1 0 229.9904 0 114.9952 114.9952 0 1 0-229.9904 0Z" fill="#BE98F4" p-id="2262"></path><path d="M850.0224 838.144c-161.6896 107.9808-196.1472-83.968-197.0176-89.0368l-0.9728 1.1264c-0.8192 1.0752-2.1504 2.9184-3.84 5.2736-29.4912 42.496-27.4944 101.12 8.2944 141.568 42.0352 47.5648 114.7392 52.0704 162.304 9.984 17.3568-15.3088 28.8768-34.7648 34.6112-55.552-0.768-4.352-1.8944-8.8576-3.3792-13.3632z" fill="#AC83ED" p-id="2263"></path><path d="M515.9424 755.2512m-114.9952 0a114.9952 114.9952 0 1 0 229.9904 0 114.9952 114.9952 0 1 0-229.9904 0Z" fill="#BE98F4" p-id="2264"></path><path d="M623.3088 772.4544c-161.6896 107.9808-196.1472-83.968-197.0176-89.0368l-0.9728 1.1264c-0.8192 1.0752-2.1504 2.9184-3.84 5.2736-29.4912 42.496-27.4944 101.12 8.2944 141.568 42.0352 47.5648 114.7392 52.0704 162.304 9.984 17.3568-15.3088 28.8768-34.7648 34.6112-55.552-0.8192-4.352-1.8944-8.8576-3.3792-13.3632z" fill="#AC83ED" p-id="2265"></path><path d="M698.4704 595.8656m-114.9952 0a114.9952 114.9952 0 1 0 229.9904 0 114.9952 114.9952 0 1 0-229.9904 0Z" fill="#BE98F4" p-id="2266"></path><path d="M805.8368 613.0688c-161.6896 107.9808-196.1472-83.968-197.0176-89.0368l-0.9728 1.1264c-0.8192 1.0752-2.1504 2.9184-3.84 5.2736-29.4912 42.496-27.4944 101.12 8.2944 141.568 42.0352 47.5648 114.7392 52.0704 162.304 9.984 17.3568-15.3088 28.8768-34.7648 34.6112-55.552-0.768-4.352-1.8944-8.8576-3.3792-13.3632z" fill="#AC83ED" p-id="2267"></path><path d="M292.5568 677.888m-114.9952 0a114.9952 114.9952 0 1 0 229.9904 0 114.9952 114.9952 0 1 0-229.9904 0Z" fill="#BE98F4" p-id="2268"></path><path d="M399.9232 695.04c-161.6896 107.9808-196.1472-83.968-197.0176-89.0368l-0.9728 1.1264c-0.8192 1.0752-2.1504 2.9184-3.84 5.2736a114.37056 114.37056 0 0 0-16.8448 36.864c-2.7136 10.6496-3.9424 21.6064-3.584 32.5632 0.8192 25.7536 10.2912 51.3536 28.7232 72.1408 42.0352 47.5648 114.7392 52.0704 162.304 9.984 17.3568-15.3088 28.8768-34.7648 34.6112-55.552-0.768-4.352-1.8944-8.8064-3.3792-13.3632z" fill="#AC83ED" p-id="2269"></path><path d="M468.6848 516.1472m-114.9952 0a114.9952 114.9952 0 1 0 229.9904 0 114.9952 114.9952 0 1 0-229.9904 0Z" fill="#BE98F4" p-id="2270"></path><path d="M576.0512 533.3504c-161.6896 107.9808-196.1472-83.968-197.0176-89.0368l-0.9728 1.1264c-0.8192 1.0752-2.1504 2.9184-3.84 5.2736-29.4912 42.496-27.4944 101.12 8.2944 141.568 42.0352 47.5648 114.7392 52.0704 162.304 9.984 17.3568-15.3088 28.8768-34.7648 34.6112-55.552-0.768-4.352-1.8944-8.8576-3.3792-13.3632z" fill="#AC83ED" p-id="2271"></path><path d="M645.4272 357.4272m-114.9952 0a114.9952 114.9952 0 1 0 229.9904 0 114.9952 114.9952 0 1 0-229.9904 0Z" fill="#BE98F4" p-id="2272"></path><path d="M752.7936 374.5792c-161.6896 107.9808-196.1472-83.968-197.0176-89.0368l-0.9728 1.1264c-0.8192 1.0752-2.1504 2.9184-3.84 5.2736-29.4912 42.496-27.4944 101.12 8.2944 141.568 42.0352 47.5648 114.7392 52.0704 162.304 9.984 17.3568-15.3088 28.8768-34.7648 34.6112-55.552-0.8192-4.352-1.9456-8.8576-3.3792-13.3632z" fill="#AC83ED" p-id="2273"></path><path d="M742.8608 951.3472c-2.7136 0-5.4784-0.1024-8.192-0.256-34.7648-2.1504-66.6112-17.7152-89.6512-43.776-23.04-26.0608-34.56-59.5968-32.4096-94.3616 2.1504-34.7648 17.7152-66.6112 43.776-89.6512 53.8624-47.616 136.3968-42.496 184.0128 11.3664 47.616 53.8624 42.496 136.3968-11.3152 184.0128-24.1152 21.1968-54.4256 32.6656-86.2208 32.6656z m-0.256-229.9904c-23.4496 0-47.0016 8.192-65.9456 24.9344a99.1232 99.1232 0 0 0-33.4848 68.5056c-1.6384 26.5728 7.168 52.1728 24.7808 72.0896a99.1232 99.1232 0 0 0 68.5056 33.4848c26.5728 1.5872 52.1728-7.168 72.1408-24.7808 41.1648-36.4032 45.056-99.4816 8.6528-140.6464-19.6096-22.2208-47.0528-33.5872-74.6496-33.5872z" fill="#000F04" p-id="2274"></path><path d="M520.7552 878.4896c-2.7136 0-5.4784-0.1024-8.192-0.256-34.7648-2.1504-66.6112-17.7152-89.6512-43.776-47.616-53.8624-42.496-136.3968 11.3664-184.0128 53.8624-47.5648 136.3968-42.496 184.0128 11.3152 47.616 53.8624 42.496 136.3968-11.3664 184.0128-24.064 21.248-54.3744 32.7168-86.1696 32.7168z m-0.256-229.9392c-23.4496 0-47.0016 8.192-65.9456 24.9344-41.1648 36.4032-45.056 99.4816-8.6528 140.6464a99.1232 99.1232 0 0 0 68.5056 33.4848c26.624 1.5872 52.1728-7.168 72.0896-24.7808 41.1648-36.4032 45.056-99.4816 8.6528-140.6464-19.6096-22.3232-47.0528-33.6384-74.6496-33.6384z" fill="#000F04" p-id="2275"></path><path d="M692.6848 726.528c-2.7136 0-5.4784-0.1024-8.192-0.256-34.7648-2.1504-66.6112-17.7152-89.6512-43.776-47.616-53.8624-42.496-136.3968 11.3664-184.0128 26.112-23.04 59.648-34.6112 94.3616-32.4608 34.7648 2.1504 66.6112 17.7152 89.6512 43.776 5.632 6.3488 5.0176 16.0768-1.3312 21.6576-6.3488 5.632-16.0768 5.0176-21.6576-1.3312A99.1232 99.1232 0 0 0 698.7264 496.64c-26.5728-1.6384-52.1728 7.168-72.1408 24.7808-41.1648 36.4032-45.056 99.4816-8.6528 140.6464a99.1232 99.1232 0 0 0 68.5056 33.4848c26.5728 1.5872 52.1728-7.168 72.1408-24.7808a99.92192 99.92192 0 0 0 33.1264-84.8896 15.35488 15.35488 0 0 1 13.7216-16.8448 15.35488 15.35488 0 0 1 16.8448 13.7216c4.2496 41.7792-11.9296 83.2512-43.3664 111.0528-24.1152 21.248-54.4256 32.7168-86.2208 32.7168zM292.608 808.448c-2.7648 0-5.5808-0.1024-8.3968-0.256-35.5328-2.2016-68.1472-18.0736-91.6992-44.8a132.0448 132.0448 0 0 1-27.648-49.4592c-2.4576-8.0896 2.0992-16.6912 10.24-19.1488 8.1408-2.5088 16.6912 2.0992 19.1488 10.24 4.3008 14.08 11.4688 26.88 21.2992 38.0416 37.4784 42.3936 102.4512 46.3872 144.8448 8.9088 20.5312-18.176 32.768-43.2128 34.4576-70.6048 1.6896-27.3408-7.3728-53.76-25.5488-74.2912-18.176-20.5312-43.2128-32.768-70.6048-34.4576-27.3408-1.6384-53.76 7.3728-74.2912 25.5488a102.56384 102.56384 0 0 0-32.1536 54.1696 15.32416 15.32416 0 0 1-18.3808 11.5712 15.29856 15.29856 0 0 1-11.5712-18.3808 132.75648 132.75648 0 0 1 41.728-70.4512c26.6752-23.6032 60.928-35.3792 96.512-33.1776 35.5328 2.2016 68.096 18.0736 91.6992 44.8s35.3792 60.9792 33.1776 96.512c-2.2016 35.5328-18.1248 68.096-44.8 91.6992-24.4224 21.8112-55.4496 33.536-88.0128 33.536z" fill="#000F04" p-id="2276"></path><path d="M468.9408 652.4416c-36.9152 0-73.6768-15.2064-99.9936-45.0048-48.6912-55.0912-43.4688-139.52 11.6224-188.2112 55.0912-48.6912 139.52-43.4688 188.2112 11.6224 48.6912 55.0912 43.4688 139.52-11.6224 188.2112a132.864 132.864 0 0 1-88.2176 33.3824z m-0.1536-235.8784c-24.1664 0-48.4352 8.448-67.8912 25.7024-42.3936 37.4784-46.3872 102.4512-8.9088 144.8448 37.4784 42.3936 102.4512 46.3872 144.8448 8.9088s46.3872-102.4512 8.9088-144.8448a102.53312 102.53312 0 0 0-76.9536-34.6112z" fill="#000F04" p-id="2277"></path><path d="M645.8368 496.2304c-2.7648 0-5.5808-0.1024-8.3968-0.256-35.5328-2.2016-68.096-18.0736-91.6992-44.8-23.6032-26.6752-35.3792-60.9792-33.1776-96.512s18.0736-68.1472 44.8-91.6992c55.0912-48.6912 139.52-43.4688 188.2112 11.6224 23.6032 26.6752 35.3792 60.9792 33.1776 96.512s-18.0736 68.1472-44.8 91.6992c-24.576 21.7088-55.6032 33.4336-88.1152 33.4336z m-0.256-235.9296c-24.1664 0-48.4352 8.448-67.8912 25.7024-20.5312 18.176-32.768 43.2128-34.4576 70.6048s7.3728 53.76 25.5488 74.2912c18.176 20.5312 43.2128 32.768 70.6048 34.4576 27.4432 1.6896 53.76-7.3728 74.2912-25.5488 20.5312-18.176 32.768-43.2128 34.4576-70.6048s-7.3728-53.76-25.5488-74.2912c-20.2752-22.9376-48.5888-34.6112-77.0048-34.6112z" fill="#000F04" p-id="2278"></path><path d="M357.7344 297.9328s-2.6112 77.6704 127.8464 64.256c130.4576-13.4144 116.5312-16.9984 116.5312-16.9984s-12.4416-61.2864-67.4816-78.2848c69.9392-19.6608 68.9664-52.3264 73.5744-70.0416 4.608-17.7152 30.1056-32.7168 22.6816-56.2176-16.2304 5.2224-59.2384-5.9392-78.4384-20.3776s-88.1664-35.0208-114.176 39.2192c-11.6224-48.9472-33.9456-66.8672-65.8432-79.2064-14.7456 51.5584-22.2208 75.264-44.544 88.3712s-51.456 109.5168 29.8496 129.28z" fill="#BFE5BD" p-id="2279"></path><path d="M372.3776 80.2304c-14.7456 51.5584-22.2208 75.264-44.544 88.3712-22.3232 13.1072-51.4048 109.568 29.9008 129.3312 0 0-0.0512 2.0992 0.4096 5.4784 9.728-8.5504 18.2784-19.9168 18.2784-33.4336-0.0512-31.2832 26.624-59.648 47.6672-66.1504s88.064-11.8784 109.2608-21.76c16.5376-7.68 50.7904-0.768 98.56-36.864-0.2048-1.4848-0.5632-3.0208-1.024-4.608-16.2304 5.2224-59.2384-5.9392-78.4384-20.3776-19.2-14.4384-88.1664-35.0208-114.176 39.2192-11.6224-48.896-33.9968-66.8672-65.8944-79.2064z" fill="#A2DD9E" p-id="2280"></path><path d="M456.8576 379.0848c-39.7824 0-70.0928-9.472-90.2656-28.3136a76.74368 76.74368 0 0 1-22.9376-40.9088c-30.0544-9.984-43.9296-27.6992-50.3296-41.472-10.9568-23.6032-8.8576-54.9376 5.5808-83.8656a15.34464 15.34464 0 0 1 27.4432 13.7216c-7.936 15.9232-13.4656 39.3216-5.1712 57.1904 6.1952 13.312 19.712 22.5792 40.1408 27.5456a15.36 15.36 0 0 1 11.7248 15.4624c0 0.512 0.0512 16.7936 14.9504 30.3104 18.1248 16.4352 51.3024 22.7328 95.9488 18.1248 56.8832-5.8368 84.9408-9.728 98.7136-12.032-6.5536-16.5888-21.76-43.776-52.6336-53.3504a15.39072 15.39072 0 0 1-10.8544-14.848c0.1024-6.8096 4.6592-12.7488 11.2128-14.592 53.5552-15.0528 57.856-35.7376 61.3376-52.3264 0.512-2.4576 0.9728-4.7104 1.536-6.8096 2.4576-9.4208 8.0384-16.9984 13.4144-24.32 3.4304-4.6592 6.0416-8.3456 7.7312-11.5712-24.1664-1.536-55.0912-12.4416-71.2704-24.576-7.424-5.5808-31.232-15.5136-53.7088-8.6528-16.6912 5.0688-29.0816 18.7904-36.7616 40.704a15.19104 15.19104 0 0 1-15.3088 10.24 15.32928 15.32928 0 0 1-14.1312-11.776c-8.1408-34.4064-21.504-50.688-40.9088-61.3376-0.5632 2.1504-1.1264 4.2496-1.6896 6.2464-6.5024 24.3712-10.3936 39.0656-22.8352 53.0432-5.632 6.3488-15.36 6.912-21.7088 1.28-6.3488-5.632-6.912-15.36-1.28-21.7088 7.5776-8.4992 10.24-18.5344 16.0768-40.4992 1.8432-6.912 3.9424-14.848 6.5536-23.9616 1.1776-4.1472 4.0448-7.6288 7.936-9.5232a15.1552 15.1552 0 0 1 12.3904-0.5632c23.8592 9.216 47.4624 22.7328 63.3856 55.6544 12.5952-15.872 27.2896-23.5008 39.2704-27.136 32.9728-10.0352 66.56 2.6112 81.0496 13.5168 16.9984 12.8 54.6304 21.1968 64.512 18.0224a15.2064 15.2064 0 0 1 11.776 0.9728c3.6352 1.8944 6.4 5.12 7.6288 9.0624 7.0144 22.272-5.1712 38.8096-14.08 50.8928-3.6864 4.9664-7.4752 10.1376-8.448 13.824-0.4096 1.6384-0.768 3.4304-1.1776 5.3248-3.2768 15.872-8.9088 42.8544-49.8688 63.1808 30.464 23.552 41.5744 58.7776 44.3904 69.6832 1.1264 2.4064 1.6896 5.0688 1.4336 7.8336-1.024 13.6192-14.336 15.872-31.1808 18.6368-19.7632 3.2768-53.1968 7.3728-99.4816 12.0832-10.4448 1.0752-20.5824 1.5872-30.1056 1.5872z m141.312-19.0464c0.0512 0 0.0512 0 0 0 0.0512 0 0.0512 0 0 0z" fill="#000F04" p-id="2281"></path><path d="M670.3616 308.3264m-14.2336 0a14.2336 14.2336 0 1 0 28.4672 0 14.2336 14.2336 0 1 0-28.4672 0Z" fill="#000F04" p-id="2282"></path><path d="M497.7664 463.2576m-14.2336 0a14.2336 14.2336 0 1 0 28.4672 0 14.2336 14.2336 0 1 0-28.4672 0Z" fill="#000F04" p-id="2283"></path><path d="M717.4144 537.7536m-14.2336 0a14.2336 14.2336 0 1 0 28.4672 0 14.2336 14.2336 0 1 0-28.4672 0Z" fill="#000F04" p-id="2284"></path><path d="M771.0208 768.256m-14.2336 0a14.2336 14.2336 0 1 0 28.4672 0 14.2336 14.2336 0 1 0-28.4672 0Z" fill="#000F04" p-id="2285"></path><path d="M544.6144 697.6512m-14.2336 0a14.2336 14.2336 0 1 0 28.4672 0 14.2336 14.2336 0 1 0-28.4672 0Z" fill="#000F04" p-id="2286"></path><path d="M315.904 620.2368m-14.2336 0a14.2336 14.2336 0 1 0 28.4672 0 14.2336 14.2336 0 1 0-28.4672 0Z" fill="#000F04" p-id="2287"></path></svg>