<?xml version="1.0" standalone="no"?><!DOCTYPE svg PUBLIC "-//W3C//DTD SVG 1.1//EN" "http://www.w3.org/Graphics/SVG/1.1/DTD/svg11.dtd"><svg t="1623254907022" class="icon" viewBox="0 0 1024 1024" version="1.1" xmlns="http://www.w3.org/2000/svg" p-id="8250" width="64" height="64" xmlns:xlink="http://www.w3.org/1999/xlink"><defs><style type="text/css"></style></defs><path d="M512 640m-42.666667 0a42.666667 42.666667 0 1 0 85.333334 0 42.666667 42.666667 0 1 0-85.333334 0Z" p-id="8251" fill="#ffffff"></path><path d="M725.333333 341.333333h-42.666666V260.693333a170.666667 170.666667 0 1 0-341.333334 0V341.333333H298.666667a128 128 0 0 0-128 128v341.333334a128 128 0 0 0 128 128h426.666666a128 128 0 0 0 128-128v-341.333334a128 128 0 0 0-128-128z m-298.666666-80.64A87.893333 87.893333 0 0 1 512 170.666667a87.893333 87.893333 0 0 1 85.333333 90.026666V341.333333h-170.666666zM512 768a128 128 0 1 1 128-128 128 128 0 0 1-128 128z" p-id="8252" fill="#ffffff"></path></svg>