<?xml version="1.0" standalone="no"?><!DOCTYPE svg PUBLIC "-//W3C//DTD SVG 1.1//EN" "http://www.w3.org/Graphics/SVG/1.1/DTD/svg11.dtd"><svg t="1623294857455" class="icon" viewBox="0 0 1024 1024" version="1.1" xmlns="http://www.w3.org/2000/svg" p-id="10386" xmlns:xlink="http://www.w3.org/1999/xlink" width="64" height="64"><defs><style type="text/css"></style></defs><path d="M512.5 63C734.795 63 915 243.233 915 465.562c0 92.004-30.86 176.8-82.79 244.597l-0.01 172.91a75.923 75.923 0 0 1-2.978 21.055c-11.51 39.877-52.862 63.04-92.766 52.216l-1.208-0.338-175.792-50.758a160.976 160.976 0 0 0-87.627-0.477l-1.685 0.477-175.792 50.758a75.89 75.89 0 0 1-21.052 2.978c-41.5 0-75.22-33.31-75.89-74.656l-0.01-1.255-0.01-167.018C142.688 647.305 110 560.25 110 465.562 110 243.233 290.205 63 512.5 63z m259.908 709.955c-46.973 39.77-103.184 68.962-164.957 83.904l144.383 41.68c8.543 2.467 17.468-2.46 19.934-11.004 0.35-1.21 0.555-2.456 0.614-3.712l0.018-0.754z m-515.215 3.837l0.007 106.277c0 8.893 7.208 16.102 16.1 16.102 1.259 0 2.513-0.148 3.736-0.44l0.73-0.192 142.302-41.08c-60.755-14.279-116.203-42.325-162.875-80.667zM512.5 122.81c-189.268 0-342.7 153.456-342.7 342.753 0 189.298 153.432 342.753 342.7 342.753S855.2 654.86 855.2 465.562c0-189.297-153.432-342.753-342.7-342.753z m-26.575 168.073c7.87-15.95 27.178-22.499 43.126-14.627a32.202 32.202 0 0 1 14.624 14.627l45.056 91.309 100.751 14.642c17.361 2.523 29.462 18.46 27.33 35.789l-0.095 0.712a32.207 32.207 0 0 1-9.39 18.431l-72.904 71.072 17.211 100.361c2.965 17.29-8.446 33.723-25.576 37.055l-0.717 0.13a32.196 32.196 0 0 1-20.427-3.235L514.8 609.765l-90.114 47.383c-15.516 8.158-34.654 2.394-43.124-12.85l-0.361-0.67a32.21 32.21 0 0 1-3.235-20.43l17.209-100.361-72.903-71.072c-12.538-12.224-12.984-32.179-1.146-44.948l0.564-0.593a32.198 32.198 0 0 1 18.428-9.39l100.748-14.643z m28.875 76.625l-34.22 69.35-76.52 11.121 55.37 53.98-13.073 76.223 68.443-35.987 68.441 35.987-13.07-76.222 55.367-53.98-76.517-11.122-34.221-69.35z" fill="#111827" p-id="10387"></path></svg>