<?xml version="1.0" standalone="no"?><!DOCTYPE svg PUBLIC "-//W3C//DTD SVG 1.1//EN" "http://www.w3.org/Graphics/SVG/1.1/DTD/svg11.dtd"><svg class="icon" width="64px" height="64.00px" viewBox="0 0 1024 1024" version="1.1" xmlns="http://www.w3.org/2000/svg"><path fill="#ffffff" d="M768 640a128 128 0 0 0-89.6 36.693333L341.333333 526.506667v-28.586667l337.066667-150.613333A128 128 0 1 0 640 256v14.506667L302.933333 420.693333a128 128 0 1 0 0 182.613334l337.066667 150.613333V768a128 128 0 1 0 128-128z m0-426.666667a42.666667 42.666667 0 1 1-42.666667 42.666667 42.666667 42.666667 0 0 1 42.666667-42.666667zM213.333333 554.666667a42.666667 42.666667 0 1 1 42.666667-42.666667 42.666667 42.666667 0 0 1-42.666667 42.666667z m554.666667 256a42.666667 42.666667 0 1 1 42.666667-42.666667 42.666667 42.666667 0 0 1-42.666667 42.666667z" /></svg>