<?xml version="1.0" standalone="no"?><!DOCTYPE svg PUBLIC "-//W3C//DTD SVG 1.1//EN" "http://www.w3.org/Graphics/SVG/1.1/DTD/svg11.dtd"><svg class="icon" width="64px" height="64.00px" viewBox="0 0 1024 1024" version="1.1" xmlns="http://www.w3.org/2000/svg"><path fill="#ffffff" d="M749.226667 896a42.666667 42.666667 0 0 1-19.626667-4.693333L512 777.386667l-217.6 113.92a42.666667 42.666667 0 0 1-61.866667-45.226667l42.666667-240.213333-175.786667-170.666667a42.666667 42.666667 0 0 1-10.666666-42.666667 42.666667 42.666667 0 0 1 34.56-29.013333l243.2-35.413333 107.093333-218.88a42.666667 42.666667 0 0 1 76.8 0l108.373333 218.453333 243.2 35.413333a42.666667 42.666667 0 0 1 34.56 29.013334 42.666667 42.666667 0 0 1-10.666666 42.666666l-175.786667 170.666667 42.666667 240.213333a42.666667 42.666667 0 0 1-17.066667 42.666667 42.666667 42.666667 0 0 1-26.453333 7.68zM512 686.933333a39.253333 39.253333 0 0 1 19.626667 4.693334l160.853333 85.333333-30.72-179.626667a42.666667 42.666667 0 0 1 12.373333-37.973333l128-125.013333-179.2-26.453334a42.666667 42.666667 0 0 1-30.293333-23.893333L512 224 431.36 384a42.666667 42.666667 0 0 1-32 23.04l-179.2 26.453333 128 125.013334a42.666667 42.666667 0 0 1 12.373333 37.973333l-30.72 177.493333 160.853334-85.333333a39.253333 39.253333 0 0 1 21.333333-1.706667z" /></svg>