<?xml version="1.0" standalone="no"?><!DOCTYPE svg PUBLIC "-//W3C//DTD SVG 1.1//EN" "http://www.w3.org/Graphics/SVG/1.1/DTD/svg11.dtd"><svg t="1624376195215" class="icon" viewBox="0 0 1024 1024" version="1.1" xmlns="http://www.w3.org/2000/svg" p-id="8306" xmlns:xlink="http://www.w3.org/1999/xlink" width="64" height="64"><defs><style type="text/css"></style></defs><path d="M350.976 371.669333h341.546667c100.608 0 182.144 79.786667 182.144 178.176v210.688C874.666667 858.88 793.130667 938.666667 692.522667 938.666667H331.434667C230.826667 938.666667 149.333333 858.88 149.333333 760.533333v-210.688c0-80.938667 55.466667-148.48 130.986667-170.24l-4.693333 0.597334V315.178667C276.48 188.458667 381.866667 85.333333 511.104 85.333333c100.992 0 190.293333 62.378667 223.232 154.794667a36.010667 36.010667 0 0 1-1.706667 28.416 36.096 36.096 0 0 1-21.717333 18.688 38.656 38.656 0 0 1-48.554667-22.912c-22.101333-62.805333-82.773333-104.789333-150.4-104.789333-88.490667 0-160 69.589333-160.426666 154.794666V371.626667l-0.554667 0.085333z m160.810667 367.658667a37.546667 37.546667 0 0 0 38.144-37.290667v-94.165333a37.461333 37.461333 0 0 0-38.144-36.864 37.333333 37.333333 0 0 0-37.717334 36.864v94.165333c0 20.778667 16.896 37.290667 37.717334 37.290667z" fill="#000000" p-id="8307"></path></svg>