<?xml version="1.0" standalone="no"?><!DOCTYPE svg PUBLIC "-//W3C//DTD SVG 1.1//EN" "http://www.w3.org/Graphics/SVG/1.1/DTD/svg11.dtd"><svg class="icon" width="64px" height="64.00px" viewBox="0 0 1024 1024" version="1.1" xmlns="http://www.w3.org/2000/svg"><path fill="#ffffff" d="M886.613333 357.12a42.666667 42.666667 0 1 0-66.56 53.76 170.666667 170.666667 0 0 1 0 202.24A42.666667 42.666667 0 0 0 853.333333 682.666667a42.666667 42.666667 0 0 0 33.28-15.786667 256 256 0 0 0 0-309.76zM702.72 133.12a42.666667 42.666667 0 0 0-42.666667 0L384 322.986667H170.666667a42.666667 42.666667 0 0 0-42.666667 42.666666v292.693334a42.666667 42.666667 0 0 0 42.666667 42.666666h213.333333l273.493333 187.733334A45.226667 45.226667 0 0 0 682.666667 896a42.666667 42.666667 0 0 0 42.666666-42.666667V170.666667a42.666667 42.666667 0 0 0-22.613333-37.546667zM640 772.266667l-217.6-149.333334a42.666667 42.666667 0 0 0-24.32-7.253333H213.333333V408.32h184.746667a42.666667 42.666667 0 0 0 24.32-7.253333L640 251.733333z" /></svg>